<?xml version="1.0" encoding="UTF-8"?>
<svg width="50px" height="50px" viewBox="0 0 50 50" version="1.1" xmlns="http://www.w3.org/2000/svg" xmlns:xlink="http://www.w3.org/1999/xlink">
    <!-- Generator: Sketch 55.1 (78136) - https://sketchapp.com -->
    <title>Icons/Form/Password</title>
    <desc>Created with Sketch.</desc>
    <g id="Icons/Form/Password" stroke="none" stroke-width="1" fill="none" fill-rule="evenodd">
        <g id="contactWeb" transform="translate(-5.000000, 0.000000)">
            <path d="M0.5,0.935897436 L0.5,49.9358974 L59.5,49.9358974 L59.5,0.935897436 L0.5,0.935897436 Z" id="bg-for-icon" stroke="#979797" fill="#FFFFFF" opacity="0"></path>
            <path d="M39.9901408,20.2295775 C41.2746479,20.2295775 42.3450704,20.6577465 43.3084507,21.6211268 C44.271831,22.584507 44.7,23.6549296 44.7,24.9394366 L44.7,38.9619718 C44.7,40.2464789 44.271831,41.3169014 43.3084507,42.2802817 C42.3450704,43.243662 41.2746479,43.671831 39.9901408,43.671831 L19.0098592,43.671831 C17.7253521,43.671831 16.6549296,43.243662 15.6915493,42.2802817 C14.728169,41.3169014 14.3,40.2464789 14.3,38.9619718 L14.3,24.9394366 C14.3,23.6549296 14.728169,22.584507 15.6915493,21.6211268 C16.6549296,20.6577465 17.7253521,20.2295775 19.0098592,20.2295775 L20.1873239,20.2295775 L20.1873239,15.7338028 C20.1873239,14.4492958 20.4014085,13.1647887 20.8295775,11.9873239 C21.2577465,10.8098592 21.9,9.84647887 22.756338,8.88309859 C23.6126761,8.02676056 24.5760563,7.38450704 25.7535211,6.84929577 C26.9309859,6.31408451 28.215493,6.1 29.6070423,6.1 C30.9985915,6.1 32.2830986,6.31408451 33.3535211,6.84929577 C34.5309859,7.38450704 35.4943662,8.02676056 36.3507042,8.88309859 C37.2070423,9.73943662 37.8492958,10.7028169 38.2774648,11.8802817 C38.7056338,13.0577465 38.9197183,14.3422535 38.9197183,15.6267606 L38.9197183,20.1225352 L39.9901408,20.1225352 L39.9901408,20.2295775 Z M42.3450704,38.9619718 L42.3450704,24.9394366 C42.3450704,24.2971831 42.1309859,23.7619718 41.7028169,23.3338028 C41.2746479,22.9056338 40.7394366,22.6915493 40.0971831,22.6915493 L19.0098592,22.6915493 C18.3676056,22.6915493 17.8323944,22.9056338 17.4042254,23.3338028 C16.9760563,23.7619718 16.7619718,24.2971831 16.7619718,24.9394366 L16.7619718,38.9619718 C16.7619718,39.6042254 16.9760563,40.1394366 17.4042254,40.5676056 C17.8323944,40.9957746 18.3676056,41.2098592 19.0098592,41.2098592 L40.0971831,41.2098592 C40.7394366,41.2098592 41.2746479,40.9957746 41.7028169,40.5676056 C42.1309859,40.1394366 42.3450704,39.6042254 42.3450704,38.9619718 Z M22.4352113,15.7338028 L22.4352113,20.2295775 L36.4577465,20.2295775 L36.4577465,15.7338028 C36.4577465,13.7 35.815493,11.9873239 34.5309859,10.5957746 C33.2464789,9.20422535 31.5338028,8.45492958 29.3929577,8.45492958 C27.2521127,8.45492958 25.5394366,9.20422535 24.2549296,10.5957746 C23.0774648,12.0943662 22.4352113,13.8070423 22.4352113,15.7338028 Z M29.5,27.2943662 C30.1422535,27.2943662 30.6774648,27.5084507 31.2126761,27.9366197 C31.7478873,28.3647887 31.8549296,28.9 31.8549296,29.6492958 C31.8549296,30.0774648 31.7478873,30.5056338 31.5338028,30.8267606 C31.3197183,31.1478873 30.9985915,31.4690141 30.6774648,31.6830986 L30.6774648,35.5366197 C30.6774648,35.8577465 30.5704225,36.1788732 30.356338,36.3929577 C30.1422535,36.6070423 29.8211268,36.7140845 29.5,36.7140845 C29.1788732,36.7140845 28.8577465,36.6070423 28.643662,36.3929577 C28.4295775,36.1788732 28.3225352,35.8577465 28.3225352,35.5366197 L28.3225352,31.6830986 C28.0014085,31.4690141 27.6802817,31.2549296 27.4661972,30.8267606 C27.2521127,30.3985915 27.1450704,30.0774648 27.1450704,29.6492958 C27.1450704,29.0070423 27.3591549,28.471831 27.7873239,27.9366197 C28.3225352,27.5084507 28.8577465,27.2943662 29.5,27.2943662 Z" id="password" fill="#637289" fill-rule="nonzero"></path>
        </g>
    </g>
</svg>