<?xml version="1.0" encoding="UTF-8"?>
<svg width="45px" height="35px" viewBox="0 0 45 35" version="1.1" xmlns="http://www.w3.org/2000/svg" xmlns:xlink="http://www.w3.org/1999/xlink">
    <!-- Generator: Sketch 55.1 (78136) - https://sketchapp.com -->
    <title>contactWeb</title>
    <desc>Created with Sketch.</desc>
    <defs>
        <path d="M39.48052,0.16883 C41.97656,0.16883 44,2.19227 44,4.68831 L44,28.980519 C44,31.47656 41.97656,33.5 39.48052,33.5 L5.019481,33.5 C2.52344,33.5 0.5,31.47656 0.5,28.980519 L0.5,4.68831 C0.5,2.19227 2.52344,0.16883 5.019481,0.16883 L39.48052,0.16883 Z M36.29994,32.37013 L36.29994,30.392857 C36.29994,27.079364 33.61382,24.393247 30.30032,24.393247 C26.98683,24.393247 24.30071,27.079364 24.30071,30.392857 L24.30071,32.37013 L36.29994,32.37013 Z M30.30032,23.26338 C32.52272,23.26338 34.32519,21.46343 34.328314,19.24104 C34.3306,17.61136 33.35066,16.14087 31.84569,15.51564 C30.34071,14.8904 28.60728,15.23362 27.45411,16.38517 C26.30094,17.53673 25.95529,19.26968 26.57841,20.77553 C27.20154,22.28138 28.67064,23.26338 30.30032,23.26338 Z M42.87013,28.980519 L42.87013,4.68831 C42.87013,2.81628 41.35255,1.2987 39.48052,1.2987 L5.019481,1.2987 C3.14745,1.2987 1.62987,2.81628 1.62987,4.68831 L1.62987,28.980519 C1.62987,30.85255 3.14745,32.37013 5.019481,32.37013 L23.17084,32.37013 L23.17084,30.392857 C23.17613,27.431073 25.01062,24.780502 27.78071,23.73227 C25.73142,22.58668 24.71434,20.20166 25.30626,17.92973 C25.89818,15.6578 27.94973,14.07227 30.2975,14.07227 C32.64527,14.07227 34.69682,15.6578 35.28874,17.92973 C35.88066,20.20166 34.86358,22.58668 32.81429,23.73227 C35.58765,24.777322 37.42525,27.429138 37.42981,30.392857 L37.42981,32.37013 L39.48052,32.37013 C41.35255,32.37013 42.87013,30.85255 42.87013,28.980519 Z M28.88799,8.43383 C28.88799,8.74584 28.63506,8.99877 28.32305,8.99877 L16.25039,8.99877 C15.93838,8.99877 15.68545,8.74584 15.68545,8.43383 C15.68545,8.12183 15.93838,7.8689 16.25039,7.8689 L28.32305,7.8689 C28.63506,7.8689 28.88799,8.12183 28.88799,8.43383 Z M17.30682,17.61403 C17.30682,17.92603 17.05389,18.17896 16.74188,18.17896 L5.866883,18.17896 C5.554878,18.17896 5.301948,17.92603 5.301948,17.61403 C5.301948,17.30202 5.554878,17.04909 5.866883,17.04909 L16.74188,17.04909 C17.05389,17.04909 17.30682,17.30202 17.30682,17.61403 Z M17.30682,22.83968 C17.30682,23.15168 17.05389,23.40461 16.74188,23.40461 L5.866883,23.40461 C5.554878,23.40461 5.301948,23.15168 5.301948,22.83968 C5.301948,22.52767 5.554878,22.27474 5.866883,22.27474 L16.74188,22.27474 C17.05389,22.27474 17.30682,22.52767 17.30682,22.83968 Z" id="path-1"></path>
    </defs>
    <g id="Symbols" stroke="none" stroke-width="1" fill="none" fill-rule="evenodd">
        <g id="Icons/Form/Username" transform="translate(-3.000000, -2.000000)">
            <g id="contactWeb" transform="translate(-7.000000, 0.000000)">
                <path d="M0.5,0.935897436 L0.5,49.9358974 L59.5,49.9358974 L59.5,0.935897436 L0.5,0.935897436 Z" id="bg-for-icon" stroke="#979797" fill="#FFFFFF" opacity="0"></path>
                <g id="username" transform="translate(10.000000, 3.000000)">
                    <g id="Group-3">
                        <mask id="mask-2" fill="white">
                            <use xlink:href="#path-1"></use>
                        </mask>
                        <g id="Clip-2"></g>
                        <polygon id="Fill-1" fill="#637289" mask="url(#mask-2)" points="-4.5 -4.83117 49 -4.83117 49 38.5 -4.5 38.5"></polygon>
                    </g>
                    <path d="M39.48052,0.16883 L5.019481,0.16883 C2.52344,0.16883 0.5,2.19227 0.5,4.688311 L0.5,28.98052 C0.5,31.47656 2.52344,33.5 5.019481,33.5 L39.48052,33.5 C41.97656,33.5 44,31.47656 44,28.98052 L44,4.688311 C44,2.19227 41.97656,0.16883 39.48052,0.16883 Z M36.29994,32.37013 L24.30071,32.37013 L24.30071,30.39286 C24.30071,27.07936 26.98683,24.39325 30.30032,24.39325 C33.61382,24.39325 36.29994,27.07936 36.29994,30.39286 L36.29994,32.37013 Z M30.30032,23.26338 C28.67064,23.26338 27.20154,22.28137 26.57841,20.77552 C25.95529,19.26968 26.30094,17.53672 27.45411,16.38517 C28.60728,15.23362 30.34071,14.8904 31.84569,15.51564 C33.35066,16.14087 34.3306,17.61136 34.328314,19.24104 C34.32519,21.46343 32.52272,23.26338 30.30032,23.26338 Z M42.87013,28.98052 C42.87013,30.85255 41.35255,32.37013 39.48052,32.37013 L37.42981,32.37013 L37.42981,30.39286 C37.42525,27.42914 35.58765,24.77732 32.81429,23.73227 C34.86358,22.58667 35.88066,20.20165 35.28874,17.92973 C34.69682,15.6578 32.64527,14.07227 30.2975,14.07227 C27.94973,14.07227 25.89818,15.6578 25.30626,17.92973 C24.71434,20.20165 25.73142,22.58667 27.78071,23.73227 C25.01062,24.7805 23.17613,27.43107 23.17084,30.39286 L23.17084,32.37013 L5.019481,32.37013 C3.14745,32.37013 1.62987,30.85255 1.62987,28.98052 L1.62987,4.688311 C1.62987,2.81628 3.14745,1.2987 5.019481,1.2987 L39.48052,1.2987 C41.35255,1.2987 42.87013,2.81628 42.87013,4.688311 L42.87013,28.98052 Z M28.88799,8.43383 C28.88799,8.745835 28.63506,8.998765 28.32305,8.998765 L16.25039,8.998765 C15.93838,8.998765 15.68545,8.745835 15.68545,8.43383 C15.68545,8.121825 15.93838,7.868895 16.25039,7.868895 L28.32305,7.868895 C28.63506,7.868895 28.88799,8.121825 28.88799,8.43383 Z M17.30682,17.61402 C17.30682,17.92603 17.05389,18.17896 16.74188,18.17896 L5.866883,18.17896 C5.554878,18.17896 5.301948,17.92603 5.301948,17.61402 C5.301948,17.30202 5.554878,17.04909 5.866883,17.04909 L16.74188,17.04909 C17.05389,17.04909 17.30682,17.30202 17.30682,17.61402 Z M17.30682,22.83967 C17.30682,23.15168 17.05389,23.40461 16.74188,23.40461 L5.866883,23.40461 C5.554878,23.40461 5.301948,23.15168 5.301948,22.83967 C5.301948,22.52767 5.554878,22.27474 5.866883,22.27474 L16.74188,22.27474 C17.05389,22.27474 17.30682,22.52767 17.30682,22.83967 Z" id="Stroke-4" stroke="#637289" stroke-width="0.7"></path>
                </g>
            </g>
        </g>
    </g>
</svg>