<?xml version="1.0" encoding="UTF-8"?>
<svg width="155px" height="51px" viewBox="0 0 155 51" version="1.1" xmlns="http://www.w3.org/2000/svg" xmlns:xlink="http://www.w3.org/1999/xlink">
    <!-- Generator: Sketch 55.1 (78136) - https://sketchapp.com -->
    <title>Asset 1</title>
    <desc>Created with Sketch.</desc>
    <g id="Page-1" stroke="none" stroke-width="1" fill="none" fill-rule="evenodd">
        <g id="Org-Settings---Users---User-Profile-Copy-3" transform="translate(-70.000000, -52.000000)" fill-rule="nonzero">
            <g id="Asset-1" transform="translate(70.000000, 52.000000)">
                <path d="M33.8692828,44.781358 L21.3769959,44.781358 L21.3769959,19.7074074 C21.3688663,18.868329 21.0206771,18.0684985 20.4121786,17.4911111 C19.8439536,16.9313923 19.0695029,16.6320512 18.2728011,16.6641975 C16.6258163,16.7169234 15.3127048,18.0586311 15.294452,19.7074074 L15.294452,47.8308642 C15.3159242,49.502602 16.6650507,50.8525882 18.335724,50.8740741 L33.8692828,50.8740741 C34.705317,50.8655993 35.5019085,50.5170578 36.0757781,49.908642 C36.6388837,49.3416185 36.9425418,48.5667969 36.9147497,47.7679012 C36.8641858,46.1189322 35.5220935,44.8037699 33.8734777,44.7876543" id="Path" fill="#FF0064"></path>
                <path d="M52.0728687,1.04938272 C51.5070508,0.484624401 50.7321379,0.180543369 49.9334912,0.209876543 C48.2842818,0.258299313 46.9681128,1.60218473 46.9530447,3.25308642 L46.9530447,16.5802469 L33.6280785,16.5802469 C31.9569398,16.6006281 30.6071747,17.9512533 30.5868065,19.6234568 L30.5868065,33.1814815 C30.594759,34.0210257 30.9438434,34.8211733 31.5537212,35.3977778 C32.0890353,35.9295302 32.8108879,36.2308076 33.5651556,36.237284 L33.6930988,36.237284 C35.3410177,36.1866879 36.6553426,34.8437404 36.6714479,33.1940741 L36.6714479,22.6792593 L49.9964141,22.6792593 C51.6674265,22.6566455 53.0162388,21.306043 53.0376861,19.6339506 L53.0376861,3.26358025 C53.0285104,2.42533569 52.6804451,1.62654696 52.0728687,1.04938272" id="Path" fill="#B7D2E5"></path>
                <path d="M34.2342355,5.49876543 C34.7920967,4.92921016 35.0909866,4.1549412 35.0606225,3.35802469 C35.0079302,1.70999047 33.6670768,0.396042205 32.0193505,0.377777778 L3.04336942,0.377777778 C1.37234186,0.399238725 0.0225993114,1.74891051 0,3.42098765 L0,19.8711111 C0.00795255118,20.7106553 0.357036952,21.5108029 0.96691475,22.0874074 C1.50298072,22.6180312 2.22435375,22.9191084 2.97834912,22.9269136 L3.10629229,22.9269136 C4.75728089,22.8728702 6.07104092,21.5239954 6.08254398,19.8711111 L6.08254398,6.4662963 L32.0193505,6.4662963 C32.8583601,6.45833868 33.6579981,6.10903184 34.2342355,5.49876543" id="Path" fill="#203554"></path>
                <path d="M75.9017591,24.5555556 L71.4405277,24.5555556 L71.4405277,30.0123457 C71.4387726,30.4246629 71.4611836,30.8367283 71.5076455,31.2464198 C71.5429571,31.5847892 71.6464139,31.9124922 71.8117727,32.2097531 C71.9798812,32.4929179 72.2352714,32.713857 72.5395805,32.8393827 C72.9533365,33.0013811 73.3959961,33.0763954 73.8399865,33.0597531 C74.1958486,33.0538594 74.5509999,33.0258217 74.9033829,32.9758025 C75.2674409,32.9489757 75.6151474,32.8137516 75.9017591,32.5875309 L75.9017591,36.8123457 C75.3336355,37.0157982 74.7437903,37.1524365 74.1441137,37.2195062 C73.5493117,37.2855482 72.9513609,37.3191781 72.3529093,37.3202469 C71.5568825,37.3269306 70.7630354,37.2360064 69.9891069,37.0495062 C69.3101917,36.8864264 68.6691968,36.5935189 68.1014208,36.1869136 C67.5609174,35.7864922 67.1284468,35.2578206 66.8429635,34.6485185 C66.5200855,33.9265869 66.3644931,33.1409546 66.3878214,32.3503704 L66.3878214,24.5555556 L63.1326116,24.5555556 L63.1326116,20.4860494 L66.3773342,20.4860494 L66.3773342,15.6190123 L71.4447226,15.6190123 L71.4447226,20.4860494 L75.905954,20.4860494 L75.9017591,24.5555556 Z" id="Path" fill="#121F2D"></path>
                <path d="M83.5364005,11.3585185 L83.5364005,22.7191358 L83.6056157,22.7191358 C83.7359885,22.3702648 83.9309629,22.0491353 84.1803112,21.7725926 C84.462865,21.4451634 84.7930638,21.1621577 85.1598106,20.9330864 C85.579535,20.6682513 86.0341773,20.4633906 86.5105548,20.3244444 C87.058686,20.1629165 87.6275942,20.0830065 88.1989851,20.087284 C89.4840099,20.087284 90.520839,20.2845679 91.3094723,20.6791358 C92.0630903,21.0444479 92.7005967,21.6118851 93.1510149,22.3182716 C93.6105776,23.073027 93.9143894,23.9122531 94.0445196,24.7864198 C94.2083113,25.803706 94.2875856,26.8328233 94.2815291,27.8632099 L94.2815291,36.9193827 L89.2141407,36.9193827 L89.2141407,28.872716 C89.2141407,28.3983951 89.1973613,27.9086831 89.1638024,27.4035802 C89.1343906,26.9228006 89.0318346,26.4493268 88.8596752,25.9995062 C88.7002366,25.5855505 88.431248,25.2228012 88.0815291,24.9501235 C87.7312585,24.6793827 87.2320704,24.5450617 86.5776725,24.5450617 C86.0263739,24.5205577 85.4784575,24.6429578 84.9899188,24.8997531 C84.5979112,25.1222153 84.2760275,25.4501206 84.0607578,25.8462963 C83.8401618,26.2616675 83.6979582,26.7141631 83.641272,27.1811111 C83.5723911,27.6966326 83.5380565,28.2161879 83.538498,28.7362963 L83.538498,36.9214815 L78.4690122,36.9214815 L78.4690122,11.3585185 L83.5364005,11.3585185 Z" id="Path" fill="#121F2D"></path>
                <path d="M97.1864682,20.4860494 L102.255954,20.4860494 L102.255954,23.1241975 L102.323072,23.1241975 C102.769537,22.2199868 103.42798,21.4372727 104.242219,20.8428395 C104.987506,20.3349383 105.92226,20.0809877 107.046482,20.0809877 C107.340122,20.0809877 107.631664,20.0935802 107.925304,20.1145679 C108.199638,20.1337307 108.471473,20.1794169 108.737009,20.2509877 L108.737009,24.882963 C108.388577,24.7721793 108.032444,24.6872982 107.671516,24.6290123 C107.308698,24.5716995 106.941868,24.5436258 106.57456,24.5450617 C105.605548,24.5450617 104.836491,24.6800823 104.267388,24.9501235 C103.734435,25.1955486 103.283092,25.5889046 102.966982,26.0834568 C102.646229,26.6137101 102.444418,27.2073564 102.375507,27.8233333 C102.281514,28.5632079 102.23667,29.3085065 102.241272,30.054321 L102.241272,36.9193827 L97.1864682,36.9193827 L97.1864682,20.4860494 Z" id="Path" fill="#121F2D"></path>
                <path d="M111.276947,15.3209877 C111.28507,13.921381 112.278626,12.7217525 113.651524,12.4539602 C115.024422,12.1861679 116.395518,12.9245563 116.928348,14.2186562 C117.461178,15.5127561 117.007816,17.0033001 115.844846,17.780951 C114.681877,18.5586019 113.132161,18.4074686 112.141137,17.4197531 C111.58376,16.864238 111.272455,16.1081603 111.276947,15.3209877 L111.276947,15.3209877 Z M111.6818,20.4923457 L116.751286,20.4923457 L116.751286,36.9382716 L111.6818,36.9382716 L111.6818,20.4923457 Z" id="Shape" fill="#121F2D"></path>
                <polygon id="Path" fill="#121F2D" points="119.343708 20.4860494 124.817997 20.4860494 128.991881 31.6430864 129.058999 31.6430864 132.901488 20.4860494 138.010825 20.4860494 131.508796 36.9193827 126.143572 36.9193827"></polygon>
                <path d="M154.051962,34.0776543 C153.238169,35.1170583 152.182515,35.941368 150.977131,36.478642 C149.768787,37.0323656 148.45528,37.3187151 147.126252,37.3181481 C145.911267,37.3256868 144.704396,37.1196778 143.560622,36.7095062 C142.486344,36.3275712 141.498828,35.7353977 140.655683,34.9675309 C139.826589,34.2023336 139.165235,33.2732753 138.713464,32.2391358 C137.765539,29.9674659 137.765539,27.4106823 138.713464,25.1390123 C139.1647,24.10457 139.826128,23.1754083 140.655683,22.4106173 C141.498828,21.6427505 142.486344,21.050577 143.560622,20.668642 C144.70414,20.2574946 145.911185,20.0514558 147.126252,20.06 C148.220449,20.0457138 149.306257,20.2527341 150.318539,20.668642 C151.25184,21.0557739 152.084127,21.6516689 152.751556,22.4106173 C153.440557,23.208515 153.963263,24.1361431 154.288972,25.1390123 C154.663262,26.2841669 154.846098,27.4832861 154.830108,28.6880247 L154.830108,30.2767901 L143.071922,30.2767901 C143.236411,31.1736213 143.700922,31.9877737 144.389107,32.5854321 C145.090075,33.1671351 145.978985,33.4730793 146.889242,33.4459259 C147.632344,33.4699555 148.366328,33.2766788 149.001353,32.8897531 C149.586054,32.5063049 150.095728,32.0190683 150.50521,31.4520988 L154.051962,34.0776543 Z M149.756428,26.8432099 C149.794768,26.0257959 149.490708,25.2294125 148.917456,24.6458025 C148.325076,24.0350892 147.502261,23.7034668 146.652233,23.7328395 C146.144105,23.7225451 145.639098,23.8146177 145.167253,24.0035802 C144.762853,24.1675923 144.390737,24.4020896 144.0682,24.6961728 C143.768065,24.9715313 143.526889,25.3049663 143.359269,25.6762963 C143.190031,26.0433847 143.092497,26.4394672 143.071922,26.8432099 L149.756428,26.8432099 Z" id="Shape" fill="#121F2D"></path>
            </g>
        </g>
    </g>
</svg>