<?xml version="1.0" encoding="UTF-8"?>
<svg width="57px" height="59px" viewBox="0 0 57 59" version="1.1" xmlns="http://www.w3.org/2000/svg" xmlns:xlink="http://www.w3.org/1999/xlink">
    <!-- Generator: Sketch 55.1 (78136) - https://sketchapp.com -->
    <title>Icons/FAB/Compose</title>
    <desc>Created with Sketch.</desc>
    <g id="Icons/FAB/Compose" stroke="none" stroke-width="1" fill="none" fill-rule="evenodd">
        <path d="M51.5,27.6 L51.5,49 C51.4890199,52.5300643 48.6300643,55.3890199 45.1,55.4 L11.4,55.4 C7.8653776,55.4 5,52.5346224 5,49 L5,12.58 C5,10.8844479 5.67491304,9.25863159 6.87572425,8.06157292 C8.07653546,6.86451424 9.7044562,6.19468479 11.4,6.19996861 L32.1,6.19996861 C33.2045695,6.19996861 34.1,7.0954305 34.1,8.2 C34.1,9.3045695 33.2045695,10.2 32.1,10.2 L11.4,10.2 C10.7653266,10.1946664 10.1548136,10.4430592 9.70414201,10.8899751 C9.25347044,11.3368911 8.99997759,11.9453042 9,12.58 L9,49 C9,50.3254834 10.0745166,51.4 11.4,51.4 L45.1,51.4 C46.4254834,51.4 47.5,50.3254834 47.5,49 L47.5,27.6 C47.5,26.4954305 48.3954305,25.6 49.5,25.6 C50.6045695,25.6 51.5,26.4954305 51.5,27.6 Z M54.56,8.62 L49.5,8.62 L49.5,3 C49.5,1.8954305 48.6045695,1 47.5,1 C46.3954305,1 45.5,1.8954305 45.5,3 L45.5,8.62 L40.42,8.62 C39.3154305,8.62 38.42,9.5154305 38.42,10.62 C38.42,11.7245695 39.3154305,12.62 40.42,12.62 L45.5,12.62 L45.5,18.24 C45.5,19.3445695 46.3954305,20.24 47.5,20.24 C48.6045695,20.24 49.5,19.3445695 49.5,18.24 L49.5,12.62 L54.56,12.62 C55.6645695,12.62 56.56,11.7245695 56.56,10.62 C56.56,9.5154305 55.6645695,8.62 54.56,8.62 Z M15.38,19.56 L29.38,19.56 C30.4845695,19.56 31.38,18.6645695 31.38,17.56 C31.38,16.4554305 30.4845695,15.56 29.38,15.56 L15.38,15.56 C14.2754305,15.56 13.38,16.4554305 13.38,17.56 C13.38,18.6645695 14.2754305,19.56 15.38,19.56 Z M13.38,25.92 C13.38,27.0245695 14.2754305,27.92 15.38,27.92 L35.2,27.92 C36.3045695,27.92 37.2,27.0245695 37.2,25.92 C37.2,24.8154305 36.3045695,23.92 35.2,23.92 L15.38,23.92 C14.2754305,23.92 13.38,24.8154305 13.38,25.92 L13.38,25.92 Z M15.38,32.08 C14.2754305,32.08 13.38,32.9754305 13.38,34.08 C13.38,35.1845695 14.2754305,36.08 15.38,36.08 L29.38,36.08 C30.4845695,36.08 31.38,35.1845695 31.38,34.08 C31.38,32.9754305 30.4845695,32.08 29.38,32.08 L15.38,32.08 Z" id="Compose" fill="#FFFFFF" fill-rule="nonzero"></path>
    </g>
</svg>